<mxfile host="Electron" agent="Mozilla/5.0 (Windows NT 10.0; Win64; x64) AppleWebKit/537.36 (KHTML, like Gecko) draw.io/28.1.2 Chrome/138.0.7204.243 Electron/37.4.0 Safari/537.36" version="28.1.2">
  <diagram name="Pagina-1" id="JO6hLtCz7H8hYkKohs2n">
    <mxGraphModel dx="508" dy="714" grid="1" gridSize="10" guides="1" tooltips="1" connect="1" arrows="1" fold="1" page="1" pageScale="1" pageWidth="827" pageHeight="1169" math="0" shadow="0">
      <root>
        <mxCell id="0" />
        <mxCell id="1" parent="0" />
        <mxCell id="c36ln-nHpkeXtFYQ0u1W-3" style="edgeStyle=orthogonalEdgeStyle;rounded=0;orthogonalLoop=1;jettySize=auto;html=1;exitX=1;exitY=0.5;exitDx=0;exitDy=0;entryX=0;entryY=0.5;entryDx=0;entryDy=0;" edge="1" parent="1" source="c36ln-nHpkeXtFYQ0u1W-1" target="c36ln-nHpkeXtFYQ0u1W-2">
          <mxGeometry relative="1" as="geometry" />
        </mxCell>
        <mxCell id="c36ln-nHpkeXtFYQ0u1W-1" value="Drone Batterij" style="rounded=1;whiteSpace=wrap;html=1;" vertex="1" parent="1">
          <mxGeometry x="90" y="200" width="120" height="60" as="geometry" />
        </mxCell>
        <mxCell id="c36ln-nHpkeXtFYQ0u1W-5" style="edgeStyle=orthogonalEdgeStyle;rounded=0;orthogonalLoop=1;jettySize=auto;html=1;exitX=0.5;exitY=1;exitDx=0;exitDy=0;entryX=0.5;entryY=0;entryDx=0;entryDy=0;" edge="1" parent="1" source="c36ln-nHpkeXtFYQ0u1W-2" target="c36ln-nHpkeXtFYQ0u1W-4">
          <mxGeometry relative="1" as="geometry" />
        </mxCell>
        <mxCell id="c36ln-nHpkeXtFYQ0u1W-2" value="Voltage Regulator&lt;br&gt;? â†’ 5V" style="rounded=1;whiteSpace=wrap;html=1;" vertex="1" parent="1">
          <mxGeometry x="270" y="200" width="120" height="60" as="geometry" />
        </mxCell>
        <mxCell id="c36ln-nHpkeXtFYQ0u1W-7" style="edgeStyle=orthogonalEdgeStyle;rounded=0;orthogonalLoop=1;jettySize=auto;html=1;exitX=1;exitY=0.5;exitDx=0;exitDy=0;entryX=0;entryY=0.5;entryDx=0;entryDy=0;" edge="1" parent="1" source="c36ln-nHpkeXtFYQ0u1W-4" target="c36ln-nHpkeXtFYQ0u1W-6">
          <mxGeometry relative="1" as="geometry" />
        </mxCell>
        <mxCell id="c36ln-nHpkeXtFYQ0u1W-8" value="DATA" style="edgeLabel;html=1;align=center;verticalAlign=middle;resizable=0;points=[];" vertex="1" connectable="0" parent="c36ln-nHpkeXtFYQ0u1W-7">
          <mxGeometry x="-0.195" y="2" relative="1" as="geometry">
            <mxPoint x="8" as="offset" />
          </mxGeometry>
        </mxCell>
        <mxCell id="c36ln-nHpkeXtFYQ0u1W-4" value="MCU Walter" style="rounded=1;whiteSpace=wrap;html=1;" vertex="1" parent="1">
          <mxGeometry x="270" y="310" width="120" height="60" as="geometry" />
        </mxCell>
        <mxCell id="c36ln-nHpkeXtFYQ0u1W-6" value="4G module" style="rounded=1;whiteSpace=wrap;html=1;" vertex="1" parent="1">
          <mxGeometry x="470" y="310" width="120" height="60" as="geometry" />
        </mxCell>
        <mxCell id="c36ln-nHpkeXtFYQ0u1W-10" style="edgeStyle=orthogonalEdgeStyle;rounded=0;orthogonalLoop=1;jettySize=auto;html=1;exitX=1;exitY=0.5;exitDx=0;exitDy=0;entryX=0.5;entryY=1;entryDx=0;entryDy=0;" edge="1" parent="1" source="c36ln-nHpkeXtFYQ0u1W-9" target="c36ln-nHpkeXtFYQ0u1W-4">
          <mxGeometry relative="1" as="geometry" />
        </mxCell>
        <mxCell id="c36ln-nHpkeXtFYQ0u1W-12" value="UART" style="edgeLabel;html=1;align=center;verticalAlign=middle;resizable=0;points=[];" vertex="1" connectable="0" parent="c36ln-nHpkeXtFYQ0u1W-10">
          <mxGeometry x="-0.26" y="1" relative="1" as="geometry">
            <mxPoint as="offset" />
          </mxGeometry>
        </mxCell>
        <mxCell id="c36ln-nHpkeXtFYQ0u1W-9" value="TB600B&lt;br&gt;Gas sensor" style="rounded=1;whiteSpace=wrap;html=1;" vertex="1" parent="1">
          <mxGeometry x="90" y="420" width="120" height="60" as="geometry" />
        </mxCell>
        <mxCell id="c36ln-nHpkeXtFYQ0u1W-13" style="edgeStyle=orthogonalEdgeStyle;rounded=0;orthogonalLoop=1;jettySize=auto;html=1;exitX=1;exitY=0.5;exitDx=0;exitDy=0;entryX=0.75;entryY=1;entryDx=0;entryDy=0;" edge="1" parent="1" source="c36ln-nHpkeXtFYQ0u1W-11" target="c36ln-nHpkeXtFYQ0u1W-4">
          <mxGeometry relative="1" as="geometry" />
        </mxCell>
        <mxCell id="c36ln-nHpkeXtFYQ0u1W-14" value="UART" style="edgeLabel;html=1;align=center;verticalAlign=middle;resizable=0;points=[];" vertex="1" connectable="0" parent="c36ln-nHpkeXtFYQ0u1W-13">
          <mxGeometry x="-0.5642" relative="1" as="geometry">
            <mxPoint as="offset" />
          </mxGeometry>
        </mxCell>
        <mxCell id="c36ln-nHpkeXtFYQ0u1W-16" style="edgeStyle=orthogonalEdgeStyle;rounded=0;orthogonalLoop=1;jettySize=auto;html=1;exitX=0.5;exitY=1;exitDx=0;exitDy=0;entryX=0.5;entryY=0;entryDx=0;entryDy=0;startArrow=classic;startFill=1;" edge="1" parent="1" source="c36ln-nHpkeXtFYQ0u1W-11" target="c36ln-nHpkeXtFYQ0u1W-15">
          <mxGeometry relative="1" as="geometry" />
        </mxCell>
        <mxCell id="c36ln-nHpkeXtFYQ0u1W-11" value="GY-GPS6MV2" style="rounded=1;whiteSpace=wrap;html=1;" vertex="1" parent="1">
          <mxGeometry x="90" y="525" width="120" height="60" as="geometry" />
        </mxCell>
        <mxCell id="c36ln-nHpkeXtFYQ0u1W-15" value="GPS-Antenne" style="rounded=1;whiteSpace=wrap;html=1;" vertex="1" parent="1">
          <mxGeometry x="90" y="630" width="120" height="60" as="geometry" />
        </mxCell>
      </root>
    </mxGraphModel>
  </diagram>
</mxfile>
